<svg width="22" height="22" viewBox="0 0 22 22" fill="none" xmlns="http://www.w3.org/2000/svg">
<g clip-path="url(#clip0_412_26834)">
<g filter="url(#filter0_d_412_26834)">
<path d="M19.13 1.83277H17.5935C17.2805 0.776523 16.2671 0 15.0644 0H6.93323C5.7306 0 4.71712 0.776523 4.4042 1.83277H2.86764C1.2867 1.83277 0 3.06581 0 4.58305V19.2497C0 20.767 1.2867 22 2.86997 22H19.13C20.7133 22 22 20.767 22 19.2497V4.58305C21.9977 3.06581 20.711 1.83277 19.13 1.83277ZM6.21633 2.51978C6.21633 2.14159 6.53858 1.83277 6.93323 1.83277H15.0644C15.4591 1.83277 15.7813 2.14159 15.7813 2.51978V2.97854C15.7813 3.35673 15.4591 3.66555 15.0644 3.66555H6.93323C6.53858 3.66555 6.21633 3.35673 6.21633 2.97854V2.51978ZM20.0851 19.2475C20.0851 19.7532 19.6555 20.165 19.1277 20.165H2.86764C2.33988 20.165 1.9102 19.7532 1.9102 19.2475V4.58305C1.9102 4.07731 2.33988 3.66555 2.86764 3.66555H4.4042C4.71712 4.7218 5.7306 5.49832 6.93323 5.49832H15.0644C16.2671 5.49832 17.2805 4.7218 17.5935 3.66555H19.13C19.6578 3.66555 20.0875 4.07731 20.0875 4.58305V19.2475H20.0851Z" fill="#484B53"/>
<path d="M17.4998 1.86051L17.5205 1.93043H17.5935H19.13C20.6609 1.93043 21.9001 3.12357 21.9023 4.5832V19.2497C21.9023 20.7091 20.6633 21.9023 19.13 21.9023H2.86997C1.33667 21.9023 0.0976562 20.7091 0.0976562 19.2497V4.58305C0.0976562 3.12357 1.33672 1.93043 2.86764 1.93043H4.4042H4.47712L4.49784 1.86051C4.79817 0.846746 5.77278 0.0976562 6.93323 0.0976562H15.0644C16.2249 0.0976562 17.1995 0.846746 17.4998 1.86051ZM4.49784 3.63781L4.47712 3.56789H4.4042H2.86764C2.28991 3.56789 1.81254 4.01949 1.81254 4.58305V19.2475C1.81254 19.811 2.28991 20.2626 2.86764 20.2626H19.1277C19.6716 20.2626 20.1266 19.8623 20.178 19.3451H20.1851V19.2475V4.58305C20.1851 4.01949 19.7078 3.56789 19.13 3.56789H17.5935H17.5205L17.4998 3.63781C17.1995 4.65158 16.2249 5.40067 15.0644 5.40067H6.93323C5.77278 5.40067 4.79817 4.65158 4.49784 3.63781ZM6.93323 1.73512C6.48861 1.73512 6.11867 2.08378 6.11867 2.51978V2.97854C6.11867 3.41454 6.48861 3.7632 6.93323 3.7632H15.0644C15.5091 3.7632 15.879 3.41454 15.879 2.97854V2.51978C15.879 2.08378 15.5091 1.73512 15.0644 1.73512H6.93323Z" stroke="#484B53" stroke-width="0.195312"/>
</g>
<path d="M15.5784 9.48626C15.5781 8.98091 15.1401 8.6 14.6315 8.6H5.14683C4.64059 8.6 4.1999 8.98083 4.1999 9.48683C4.1999 9.99247 4.63805 10.3737 5.14683 10.3737H14.6337C15.1394 10.3737 15.581 9.99313 15.5784 9.48626ZM15.5784 9.48626C15.5784 9.48645 15.5784 9.48664 15.5784 9.48683H15.3784L15.5784 9.4857C15.5784 9.48589 15.5784 9.48608 15.5784 9.48626ZM10.6161 14.3799C10.6158 13.8746 10.1778 13.4937 9.66917 13.4937H5.14683C4.64059 13.4937 4.1999 13.8745 4.1999 14.3805C4.1999 14.8861 4.63805 15.2673 5.14683 15.2673H9.66917C10.1767 15.2673 10.6186 14.8871 10.6161 14.3799ZM10.6161 14.3799C10.6161 14.3801 10.6161 14.3803 10.6161 14.3805H10.4161L10.6161 14.3794C10.6161 14.3795 10.6161 14.3797 10.6161 14.3799Z" fill="#484B53" stroke="#484B53" stroke-width="0.4"/>
</g>
<defs>
<filter id="filter0_d_412_26834" x="-4" y="0" width="30" height="30" filterUnits="userSpaceOnUse" color-interpolation-filters="sRGB">
<feFlood flood-opacity="0" result="BackgroundImageFix"/>
<feColorMatrix in="SourceAlpha" type="matrix" values="0 0 0 0 0 0 0 0 0 0 0 0 0 0 0 0 0 0 127 0" result="hardAlpha"/>
<feOffset dy="4"/>
<feGaussianBlur stdDeviation="2"/>
<feComposite in2="hardAlpha" operator="out"/>
<feColorMatrix type="matrix" values="0 0 0 0 0 0 0 0 0 0 0 0 0 0 0 0 0 0 0.25 0"/>
<feBlend mode="normal" in2="BackgroundImageFix" result="effect1_dropShadow_412_26834"/>
<feBlend mode="normal" in="SourceGraphic" in2="effect1_dropShadow_412_26834" result="shape"/>
</filter>
<clipPath id="clip0_412_26834">
<rect width="22" height="22" fill="white"/>
</clipPath>
</defs>
</svg>
